<svg width="19" height="18" viewBox="0 0 19 18" fill="none" xmlns="http://www.w3.org/2000/svg">
<path d="M9.49975 16.5C5.79226 16.4511 2.79862 13.4575 2.74975 9.75001C2.79862 6.04252 5.79226 3.04888 9.49975 3.00001C13.2072 3.04888 16.2009 6.04252 16.2497 9.75001C16.2009 13.4575 13.2072 16.4511 9.49975 16.5ZM9.49975 4.50001C6.61613 4.53797 4.28771 6.86639 4.24975 9.75001C4.28771 12.6336 6.61613 14.962 9.49975 15C12.3834 14.962 14.7118 12.6336 14.7497 9.75001C14.7118 6.86639 12.3834 4.53797 9.49975 4.50001ZM13.2497 10.5H8.74975V6.00001H10.2497V9.00001H13.2497V10.5ZM15.7187 5.03101L13.462 2.78101L14.5187 1.71826L16.7762 3.96826L15.7187 5.03026V5.03101ZM3.28 5.03101L2.21875 3.96826L4.462 1.71826L5.52325 2.78101L3.2815 5.03101H3.28Z" fill="#727B85"/>
</svg>
