<svg width="11" height="13" viewBox="0 0 11 13" fill="none" xmlns="http://www.w3.org/2000/svg">
<path d="M8.75284 7.84878C8.61032 7.99475 8.54484 8.20585 8.57731 8.41287L9.0665 11.2741C9.10777 11.5166 9.01092 11.762 8.81888 11.9021C8.63068 12.0475 8.38031 12.0649 8.17506 11.9486L5.73791 10.6053C5.65317 10.5576 5.55908 10.532 5.46278 10.5291H5.31366C5.26193 10.5372 5.21131 10.5547 5.16508 10.5814L2.72739 11.9312C2.60688 11.9952 2.47041 12.0178 2.3367 11.9952C2.01094 11.93 1.79358 11.602 1.84696 11.256L2.3367 8.39485C2.36916 8.18607 2.30368 7.97381 2.16116 7.82552L0.174135 5.79013C0.00795302 5.61974 -0.0498253 5.36386 0.0261119 5.13299C0.0998481 4.9027 0.28804 4.73463 0.515302 4.69683L3.25014 4.27754C3.45815 4.25486 3.64084 4.12111 3.73438 3.92338L4.93947 1.31227C4.96809 1.25411 5.00495 1.20061 5.04953 1.15525L5.09905 1.11455C5.12491 1.08431 5.15463 1.0593 5.18764 1.03894L5.24762 1.01568L5.34117 0.974976H5.57283C5.77973 0.997656 5.96187 1.1285 6.05707 1.3239L7.27812 3.92338C7.36616 4.11355 7.5373 4.24556 7.73484 4.27754L10.4697 4.69683C10.7008 4.73172 10.8939 4.90037 10.9704 5.13299C11.0425 5.36619 10.9803 5.62206 10.8109 5.79013L8.75284 7.84878Z" fill="#333333"/>
</svg>
