<svg width="18" height="18" viewBox="0 0 18 18" fill="none" xmlns="http://www.w3.org/2000/svg">
<path d="M9.00002 15.7501C8.51627 15.3211 7.96952 14.8749 7.39127 14.4001H7.38377C5.34752 12.7351 3.03977 10.8511 2.02052 8.59361C1.68566 7.87491 1.5082 7.09296 1.50001 6.30011C1.49777 5.21222 1.9341 4.16935 2.71037 3.40719C3.48665 2.64502 4.53736 2.22791 5.62502 2.25011C6.51049 2.25151 7.37689 2.50742 8.12102 2.98736C8.44799 3.19959 8.74383 3.4563 9.00002 3.75011C9.25763 3.45746 9.55355 3.20089 9.87977 2.98736C10.6236 2.50733 11.4898 2.2514 12.375 2.25011C13.4627 2.22791 14.5134 2.64502 15.2897 3.40719C16.0659 4.16935 16.5023 5.21222 16.5 6.30011C16.4924 7.09422 16.3149 7.87751 15.9795 8.59736C14.9603 10.8549 12.6533 12.7381 10.617 14.4001L10.6095 14.4061C10.0305 14.8779 9.48452 15.3241 9.00077 15.7561L9.00002 15.7501ZM5.62502 3.75011C4.9264 3.74137 4.25257 4.00874 3.75002 4.49411C3.26581 4.96973 2.99518 5.6214 2.99995 6.30011C3.00851 6.87799 3.13939 7.4475 3.38402 7.97111C3.86515 8.94514 4.51435 9.82665 5.30177 10.5751C6.04502 11.3251 6.90002 12.0511 7.63952 12.6616C7.84427 12.8304 8.05277 13.0006 8.26127 13.1709L8.39252 13.2781C8.59277 13.4416 8.79977 13.6111 9.00002 13.7776L9.00977 13.7686L9.01427 13.7649H9.01877L9.02552 13.7596H9.02927H9.03302L9.04652 13.7484L9.07727 13.7236L9.08252 13.7191L9.09077 13.7131H9.09527L9.10202 13.7071L9.60002 13.2984L9.73052 13.1911C9.94127 13.0194 10.1498 12.8491 10.3545 12.6804C11.094 12.0699 11.9498 11.3446 12.693 10.5909C13.4805 9.84278 14.1298 8.9615 14.6108 7.98761C14.8598 7.45946 14.9926 6.88399 15 6.30011C15.0031 5.62349 14.7327 4.97433 14.25 4.50011C13.7484 4.01255 13.0745 3.74297 12.375 3.75011C11.5215 3.74286 10.7055 4.10064 10.1325 4.73336L9.00002 6.03836L7.86752 4.73336C7.29456 4.10064 6.47857 3.74286 5.62502 3.75011Z" fill="#2E3A59"/>
</svg>
