<svg width="25" height="24" viewBox="0 0 25 24" fill="none" xmlns="http://www.w3.org/2000/svg">
<path d="M12.4878 21C11.2247 19.9227 10.054 18.7416 8.98779 17.4691C7.38779 15.5581 5.48779 12.712 5.48779 10.0001C5.48638 7.1676 7.19204 4.61344 9.80886 3.52945C12.4257 2.44545 15.4379 3.04529 17.4398 5.04905C18.7563 6.35966 19.4937 8.14244 19.4878 10.0001C19.4878 12.712 17.5878 15.5581 15.9878 17.4691C14.9216 18.7416 13.7509 19.9227 12.4878 21ZM12.4878 7.00005C11.416 7.00005 10.4256 7.57185 9.88972 8.50005C9.35382 9.42825 9.35382 10.5718 9.88972 11.5001C10.4256 12.4283 11.416 13.0001 12.4878 13.0001C14.1446 13.0001 15.4878 11.6569 15.4878 10.0001C15.4878 8.3432 14.1446 7.00005 12.4878 7.00005Z" fill="#0059FD"/>
</svg>
