<svg width="19" height="18" viewBox="0 0 19 18" fill="none" xmlns="http://www.w3.org/2000/svg">
<path d="M7.05661 6.51142C6.25176 7.1953 5.95682 8.44253 6.65178 9.44311C7.30211 10.3794 8.12131 11.1985 9.05742 11.8485C10.058 12.5433 11.3052 12.2483 11.989 11.4434L11.9966 11.4469C12.8701 11.8516 13.7978 12.1289 14.75 12.2702V14.25L14.7492 14.25L14.7471 14.25C8.76614 14.2585 4.24361 9.68334 4.25001 3.75269V3.75H6.22953L6.22966 3.75088C6.371 4.70299 6.6482 5.6299 7.05285 6.50331L7.05661 6.51142ZM14.7492 15.75H15.5C15.9142 15.75 16.25 15.4142 16.25 15V11.6233C16.25 11.2516 15.9778 10.936 15.6101 10.8814L14.9695 10.7863C14.1592 10.6661 13.3704 10.4302 12.6271 10.0859L12.0625 9.82433C11.7353 9.67275 11.3465 9.7755 11.1369 10.0689L10.8813 10.4268C10.6573 10.7405 10.2296 10.8363 9.91298 10.6164C9.12376 10.0684 8.43205 9.37682 7.88377 8.58742C7.66386 8.27081 7.75967 7.84303 8.07338 7.619L8.43108 7.36355C8.72457 7.15396 8.82733 6.76516 8.67572 6.43793L8.41388 5.87275C8.06956 5.12955 7.83367 4.34081 7.7134 3.53062L7.61828 2.88987C7.5637 2.52222 7.24809 2.25 6.87641 2.25H3.50001C3.08579 2.25 2.75001 2.58579 2.75001 3V3.75107C2.74272 10.5059 7.93267 15.7597 14.7492 15.75Z" fill="#333333"/>
</svg>
