<svg width="31" height="30" viewBox="0 0 31 30" fill="none" xmlns="http://www.w3.org/2000/svg">
<rect x="0.5" width="30" height="30" rx="4" fill="#F4D6D6"/>
<path fill-rule="evenodd" clip-rule="evenodd" d="M19.3485 11.133C19.1709 10.9555 18.8831 10.9555 18.7056 11.133L15.4906 14.3479L12.2761 11.1334C12.0985 10.9558 11.8107 10.9558 11.6332 11.1334C11.4556 11.3109 11.4556 11.5988 11.6332 11.7763L14.8477 14.9909L11.6334 18.2052C11.4559 18.3827 11.4559 18.6706 11.6334 18.8481C11.8109 19.0256 12.0988 19.0256 12.2763 18.8481L15.4906 15.6338L18.7053 18.8484C18.8828 19.026 19.1707 19.026 19.3482 18.8484C19.5258 18.6709 19.5258 18.3831 19.3482 18.2055L16.1336 14.9909L19.3485 11.776C19.526 11.5984 19.526 11.3106 19.3485 11.133Z" fill="#854343"/>
</svg>
