<svg width="14" height="14" viewBox="0 0 14 14" fill="none" xmlns="http://www.w3.org/2000/svg">
<path d="M10.7557 11.2793L7.54105 8.06404C6.11099 9.08074 4.14042 8.83205 3.00779 7.49194C1.87516 6.15183 1.95833 4.16737 3.19912 2.92673C4.43957 1.68554 6.42422 1.60202 7.76458 2.73459C9.10494 3.86716 9.35377 5.83792 8.33699 7.2681L11.5517 10.4834L10.7563 11.2787L10.7557 11.2793ZM5.58524 3.06285C4.51857 3.06261 3.59832 3.81136 3.38163 4.85579C3.16495 5.90021 3.71139 6.95326 4.69012 7.37736C5.66885 7.80147 6.81087 7.48007 7.42475 6.60776C8.03863 5.73545 7.95565 4.55197 7.22605 3.77385L7.56637 4.11135L7.18274 3.72885L7.17599 3.7221C6.75512 3.29864 6.18227 3.06124 5.58524 3.06285Z" fill="white"/>
</svg>
