<svg width="24" height="24" viewBox="0 0 24 24" fill="none" xmlns="http://www.w3.org/2000/svg">
<path d="M13.82 22H10.18C9.71012 22 9.30357 21.673 9.20301 21.214L8.79601 19.33C8.25306 19.0921 7.73823 18.7946 7.26101 18.443L5.42401 19.028C4.97601 19.1709 4.489 18.9823 4.25401 18.575L2.43001 15.424C2.1976 15.0165 2.27767 14.5025 2.62301 14.185L4.04801 12.885C3.98321 12.2961 3.98321 11.7019 4.04801 11.113L2.62301 9.816C2.27716 9.49837 2.19706 8.98372 2.43001 8.576L4.25001 5.423C4.485 5.0157 4.97201 4.82714 5.42001 4.97L7.25701 5.555C7.50107 5.37416 7.75514 5.20722 8.01801 5.055C8.27035 4.91269 8.53005 4.78385 8.79601 4.669L9.20401 2.787C9.30408 2.32797 9.7102 2.00049 10.18 2H13.82C14.2898 2.00049 14.6959 2.32797 14.796 2.787L15.208 4.67C15.4888 4.79352 15.7622 4.93308 16.027 5.088C16.2743 5.23078 16.5133 5.38736 16.743 5.557L18.581 4.972C19.0287 4.82967 19.5151 5.01816 19.75 5.425L21.57 8.578C21.8024 8.98548 21.7224 9.49951 21.377 9.817L19.952 11.117C20.0168 11.7059 20.0168 12.3001 19.952 12.889L21.377 14.189C21.7224 14.5065 21.8024 15.0205 21.57 15.428L19.75 18.581C19.5151 18.9878 19.0287 19.1763 18.581 19.034L16.743 18.449C16.5104 18.6203 16.2687 18.7789 16.019 18.924C15.7568 19.0759 15.4864 19.2131 15.209 19.335L14.796 21.214C14.6955 21.6726 14.2895 21.9996 13.82 22ZM11.996 8C9.78687 8 7.99601 9.79086 7.99601 12C7.99601 14.2091 9.78687 16 11.996 16C14.2051 16 15.996 14.2091 15.996 12C15.996 9.79086 14.2051 8 11.996 8Z" fill="#727B85"/>
</svg>
