<svg width="13" height="14" viewBox="0 0 13 14" fill="none" xmlns="http://www.w3.org/2000/svg">
<path d="M10.0423 13.4999C9.34111 13.508 8.67653 13.1876 8.24618 12.634C7.81583 12.0803 7.66927 11.3573 7.85009 10.6798L3.79363 8.36124C3.09269 9.00342 2.06522 9.13934 1.2214 8.7015C0.377586 8.26366 -0.10285 7.34533 0.018645 6.40248C0.14014 5.45962 0.837688 4.69308 1.76494 4.48346C2.69219 4.27384 3.65163 4.66579 4.16688 5.46469L7.84945 3.35935C7.8018 3.17933 7.77655 2.99412 7.77428 2.80791C7.76499 1.72362 8.51805 0.781715 9.57778 0.552117C10.6375 0.322518 11.7129 0.868288 12.1532 1.85919C12.5935 2.85009 12.2778 4.01398 11.3972 4.6466C10.5166 5.27923 9.31279 5.20685 8.51429 4.47326L4.52846 6.75097C4.52452 6.91901 4.50103 7.08602 4.45848 7.24863L8.51429 9.56651C9.26095 8.88129 10.372 8.77551 11.2345 9.30753C12.0971 9.83954 12.5012 10.8798 12.224 11.8546C11.9467 12.8294 11.0557 13.5013 10.0423 13.4999ZM10.0423 10.2599C9.50545 10.2599 9.07027 10.695 9.07027 11.2319C9.07027 11.7687 9.50545 12.2039 10.0423 12.2039C10.5791 12.2039 11.0143 11.7687 11.0143 11.2319C11.0143 10.695 10.5791 10.2599 10.0423 10.2599ZM2.26631 5.72389C1.72949 5.72389 1.29431 6.15907 1.29431 6.69589C1.29431 7.23271 1.72949 7.66788 2.26631 7.66788C2.80312 7.66788 3.2383 7.23271 3.2383 6.69589C3.2383 6.15907 2.80312 5.72389 2.26631 5.72389ZM10.0423 1.83591C9.50545 1.83591 9.07027 2.27109 9.07027 2.80791C9.07027 3.34473 9.50545 3.7799 10.0423 3.7799C10.5791 3.7799 11.0143 3.34473 11.0143 2.80791C11.0143 2.27109 10.5791 1.83591 10.0423 1.83591Z" fill="white"/>
</svg>
