<svg width="15" height="15" viewBox="0 0 15 15" fill="none" xmlns="http://www.w3.org/2000/svg">
<path d="M11.0119 9.11854C10.8436 9.29094 10.7663 9.54027 10.8046 9.78478L11.3824 13.1641C11.4311 13.4505 11.3167 13.7403 11.0899 13.9059C10.8677 14.0776 10.5719 14.0982 10.3295 13.9608L7.45105 12.3742C7.35096 12.3179 7.23983 12.2877 7.12609 12.2842H6.94996C6.88887 12.2938 6.82908 12.3144 6.77449 12.346L3.89536 13.9402C3.75303 14.0158 3.59185 14.0426 3.43392 14.0158C3.04917 13.9388 2.79246 13.5515 2.8555 13.1428L3.43392 9.76349C3.47227 9.51691 3.39493 9.26621 3.2266 9.09107L0.879757 6.6871C0.683483 6.48585 0.615242 6.18364 0.70493 5.91096C0.792018 5.63897 1.01429 5.44047 1.2827 5.39583L4.51278 4.90061C4.75845 4.87382 4.97422 4.71585 5.08471 4.48232L6.50802 1.39837C6.54182 1.32969 6.58536 1.2665 6.638 1.21292L6.6965 1.16484C6.72704 1.12913 6.76214 1.09959 6.80113 1.07555L6.87197 1.04808L6.98246 1H7.25607C7.50044 1.02679 7.71556 1.18133 7.828 1.41211L9.27016 4.48232C9.37415 4.70692 9.57627 4.86283 9.80959 4.90061L13.0397 5.39583C13.3126 5.43704 13.5408 5.63622 13.6311 5.91096C13.7162 6.18639 13.6428 6.4886 13.4426 6.6871L11.0119 9.11854Z" stroke="#0059FD"/>
</svg>
