<svg width="14" height="14" viewBox="0 0 14 14" fill="none" xmlns="http://www.w3.org/2000/svg">
<path d="M11.0119 8.11854C10.8436 8.29094 10.7663 8.54027 10.8046 8.78478L11.3824 12.1641C11.4311 12.4505 11.3167 12.7403 11.0899 12.9059C10.8677 13.0776 10.5719 13.0982 10.3295 12.9608L7.45105 11.3742C7.35096 11.3179 7.23983 11.2877 7.12609 11.2842H6.94996C6.88887 11.2938 6.82908 11.3144 6.77449 11.346L3.89536 12.9402C3.75303 13.0158 3.59185 13.0426 3.43392 13.0158C3.04917 12.9388 2.79246 12.5515 2.8555 12.1428L3.43392 8.76349C3.47227 8.51691 3.39493 8.26621 3.2266 8.09107L0.879757 5.6871C0.683483 5.48585 0.615242 5.18364 0.70493 4.91096C0.792018 4.63897 1.01429 4.44047 1.2827 4.39583L4.51278 3.90061C4.75845 3.87382 4.97422 3.71585 5.08471 3.48232L6.50802 0.398372C6.54182 0.329687 6.58536 0.266497 6.638 0.212923L6.6965 0.164843C6.72704 0.129127 6.76214 0.0995929 6.80113 0.0755533L6.87197 0.0480793L6.98246 0H7.25607C7.50044 0.0267871 7.71556 0.181328 7.828 0.412109L9.27016 3.48232C9.37415 3.70692 9.57627 3.86283 9.80959 3.90061L13.0397 4.39583C13.3126 4.43704 13.5408 4.63622 13.6311 4.91096C13.7162 5.18639 13.6428 5.4886 13.4426 5.6871L11.0119 8.11854Z" fill="#0059FD"/>
</svg>
