<svg width="11" height="13" viewBox="0 0 11 13" fill="none" xmlns="http://www.w3.org/2000/svg">
<path d="M8.75284 7.8489C8.61032 7.99487 8.54484 8.20597 8.57731 8.413L9.0665 11.2742C9.10777 11.5167 9.01092 11.7621 8.81888 11.9022C8.63068 12.0476 8.38031 12.0651 8.17506 11.9488L5.73791 10.6054C5.65317 10.5577 5.55908 10.5321 5.46278 10.5292H5.31366C5.26193 10.5374 5.21131 10.5548 5.16508 10.5816L2.72739 11.9313C2.60688 11.9953 2.47041 12.018 2.3367 11.9953C2.01094 11.9302 1.79358 11.6022 1.84696 11.2561L2.3367 8.39497C2.36916 8.18619 2.30368 7.97393 2.16116 7.82564L0.174135 5.79025C0.00795302 5.61986 -0.0498253 5.36398 0.0261119 5.13311C0.0998481 4.90282 0.28804 4.73475 0.515302 4.69695L3.25014 4.27766C3.45815 4.25498 3.64084 4.12123 3.73438 3.92351L4.93947 1.31239C4.96809 1.25424 5.00495 1.20074 5.04953 1.15538L5.09905 1.11467C5.12491 1.08443 5.15463 1.05942 5.18764 1.03907L5.24762 1.01581L5.34117 0.975098H5.57283C5.77973 0.997778 5.96187 1.12862 6.05707 1.32402L7.27812 3.92351C7.36616 4.11367 7.5373 4.24568 7.73484 4.27766L10.4697 4.69695C10.7008 4.73185 10.8939 4.90049 10.9704 5.13311C11.0425 5.36631 10.9803 5.62218 10.8109 5.79025L8.75284 7.8489Z" fill="#333333"/>
</svg>
