<svg width="100" height="42" viewBox="0 0 100 42" fill="none" xmlns="http://www.w3.org/2000/svg">
<path d="M38.9279 36.5405L38.8902 30.526L36.0244 35.3527H34.0636L31.1977 30.7334V36.5405H27.1441V23.3426H30.8018L35.1005 30.3752L39.2862 23.3426H42.9439L42.9816 36.5405H38.9279ZM56.2718 33.1845V36.5405H45.2986V23.3426H56.0267V26.6986H49.6728V28.2447H55.2536V31.4499H49.6728V33.1845H56.2718ZM64.7134 36.8422C63.3182 36.8422 62.0613 36.5531 60.9426 35.9749C59.8239 35.3841 58.9441 34.5671 58.303 33.5239C57.6745 32.468 57.3603 31.2739 57.3603 29.9416C57.3603 28.6092 57.6745 27.4214 58.303 26.3781C58.9441 25.3223 59.8239 24.5053 60.9426 23.9271C62.0613 23.3363 63.3182 23.0409 64.7134 23.0409C65.9955 23.0409 67.1394 23.2672 68.1449 23.7197C69.1505 24.1722 69.9801 24.8258 70.6337 25.6805L67.8244 28.1881C67.0074 27.1574 66.0458 26.6421 64.9397 26.6421C64.0096 26.6421 63.2617 26.9437 62.696 27.5471C62.1304 28.1378 61.8476 28.936 61.8476 29.9416C61.8476 30.9471 62.1304 31.7516 62.696 32.3549C63.2617 32.9457 64.0096 33.241 64.9397 33.241C66.0458 33.241 67.0074 32.7257 67.8244 31.695L70.6337 34.2026C69.9801 35.0573 69.1505 35.7109 68.1449 36.1634C67.1394 36.6159 65.9955 36.8422 64.7134 36.8422ZM83.1231 26.7929H79.258V36.5405H74.8838V26.7929H71.0187V23.3426H83.1231V26.7929ZM91.1185 36.8422C89.6981 36.8422 88.4223 36.5468 87.2911 35.956C86.1598 35.3653 85.2737 34.5483 84.6326 33.505C83.9916 32.4492 83.6711 31.2613 83.6711 29.9416C83.6711 28.6218 83.9916 27.4402 84.6326 26.397C85.2737 25.3411 86.1598 24.5178 87.2911 23.9271C88.4223 23.3363 89.6981 23.0409 91.1185 23.0409C92.5388 23.0409 93.8146 23.3363 94.9459 23.9271C96.0771 24.5178 96.9633 25.3411 97.6043 26.397C98.2454 27.4402 98.5659 28.6218 98.5659 29.9416C98.5659 31.2613 98.2454 32.4492 97.6043 33.505C96.9633 34.5483 96.0771 35.3653 94.9459 35.956C93.8146 36.5468 92.5388 36.8422 91.1185 36.8422ZM91.1185 33.241C91.6715 33.241 92.168 33.1091 92.608 32.8451C93.0605 32.5686 93.4187 32.1852 93.6827 31.695C93.9466 31.1922 94.0786 30.6077 94.0786 29.9416C94.0786 29.2754 93.9466 28.6972 93.6827 28.207C93.4187 27.7042 93.0605 27.3208 92.608 27.0569C92.168 26.7803 91.6715 26.6421 91.1185 26.6421C90.5654 26.6421 90.0627 26.7803 89.6101 27.0569C89.1702 27.3208 88.8183 27.7042 88.5543 28.207C88.2904 28.6972 88.1584 29.2754 88.1584 29.9416C88.1584 30.6077 88.2904 31.1922 88.5543 31.695C88.8183 32.1852 89.1702 32.5686 89.6101 32.8451C90.0627 33.1091 90.5654 33.241 91.1185 33.241Z" fill="#0059FD"/>
<path d="M13.3995 5.11735V18.4597H8.9775V14.1902C8.08801 14.457 7.28112 14.5904 6.55682 14.5904C4.59994 14.5904 3.10686 14.1266 2.0776 13.199C1.06104 12.2714 0.552755 10.9181 0.552755 9.13912V5.11735H4.97479V8.64355C4.97479 9.4568 5.15269 10.0604 5.50849 10.4543C5.86429 10.8355 6.40433 11.0261 7.12863 11.0261C7.87835 11.0261 8.49464 10.9245 8.9775 10.7211V5.11735H13.3995ZM27.1164 8.60543H23.209V18.4597H18.787V8.60543H14.8796V5.11735H27.1164V8.60543ZM54.6825 11.5217C55.3941 11.8139 55.9469 12.2396 56.3408 12.7987C56.7474 13.3579 56.9507 13.9932 56.9507 14.7048C56.9507 15.5435 56.6521 16.2741 56.0549 16.8968C55.4704 17.5067 54.6762 17.9769 53.6723 18.3072C52.6812 18.6249 51.5757 18.7837 50.3558 18.7837C48.4116 18.7837 46.5628 18.3962 44.8092 17.6211L46.1244 14.5142C46.747 14.7683 47.3951 14.9653 48.0685 15.1051C48.742 15.2321 49.3774 15.2957 49.9746 15.2957C50.6989 15.2957 51.2834 15.194 51.7282 14.9907C52.1856 14.7874 52.4143 14.4888 52.4143 14.0949C52.4143 13.5612 51.9759 13.2943 51.0992 13.2943H47.4967V10.054H50.7179C51.0992 10.054 51.3851 9.98414 51.5757 9.84436C51.779 9.70459 51.8806 9.50763 51.8806 9.25349C51.8806 8.92311 51.7027 8.66896 51.3469 8.49107C51.0039 8.31317 50.5464 8.22422 49.9746 8.22422C49.4409 8.22422 48.8627 8.30046 48.2401 8.45295C47.6174 8.60543 47.0266 8.82145 46.4675 9.101L45.1523 5.76541C46.6263 5.09194 48.2274 4.7552 49.9555 4.7552C51.1119 4.7552 52.1793 4.91404 53.1577 5.23172C54.1488 5.54939 54.9367 6.0132 55.5212 6.62314C56.1184 7.22037 56.417 7.9256 56.417 8.73885C56.417 9.33608 56.2646 9.87613 55.9596 10.359C55.6546 10.8419 55.2289 11.2294 54.6825 11.5217ZM67.9653 16.1343H62.8952L61.9994 18.4597H57.4249L63.2574 5.11735H67.6794L73.5119 18.4597H68.8612L67.9653 16.1343ZM66.7264 12.894L65.4303 9.53939L64.1342 12.894H66.7264Z" fill="#0059FD"/>
<path d="M42.5497 12.5668C42.5497 16.7218 35.0263 27.4534 35.0263 27.4534C35.0263 27.4534 27.5029 16.7218 27.5029 12.5668C27.5029 8.41177 30.8713 5.04346 35.0263 5.04346C39.1814 5.04346 42.5497 8.41177 42.5497 12.5668ZM29.6515 12.5668C29.6515 15.5352 32.0579 17.9416 35.0263 17.9416C37.9948 17.9416 40.4012 15.5352 40.4012 12.5668C40.4012 9.59836 37.9948 7.19198 35.0263 7.19198C32.0579 7.19198 29.6515 9.59836 29.6515 12.5668Z" fill="#EB0481"/>
<circle cx="35" cy="12.5007" r="3.5" fill="#EB0481"/>
</svg>
